<?xml version="1.0" encoding="iso-8859-1"?>
<!-- Generator: Adobe Illustrator 19.0.0, SVG Export Plug-In . SVG Version: 6.00 Build 0)  -->
<svg version="1.1" id="Layer_1" xmlns="http://www.w3.org/2000/svg" xmlns:xlink="http://www.w3.org/1999/xlink" x="0px" y="0px"
	 viewBox="0 0 512 512" style="enable-background:new 0 0 512 512;" xml:space="preserve">
<g>
	<g>
		<path d="M234.442,161.684H94.316c-4.466,0-8.084,3.62-8.084,8.084s3.619,8.084,8.084,8.084h140.126
			c4.466,0,8.084-3.62,8.084-8.084S238.908,161.684,234.442,161.684z"/>
	</g>
</g>
<g>
	<g>
		<path d="M299.116,161.684h-32.337c-4.466,0-8.084,3.62-8.084,8.084s3.618,8.084,8.084,8.084h32.337
			c4.466,0,8.084-3.62,8.084-8.084S303.582,161.684,299.116,161.684z"/>
	</g>
</g>
<g>
	<g>
		<path d="M299.116,107.789H169.768c-4.466,0-8.084,3.62-8.084,8.084c0,4.465,3.619,8.084,8.084,8.084h129.347
			c4.466,0,8.084-3.62,8.084-8.084C307.2,111.409,303.582,107.789,299.116,107.789z"/>
	</g>
</g>
<g>
	<g>
		<path d="M126.653,107.789H94.316c-4.466,0-8.084,3.62-8.084,8.084c0,4.465,3.619,8.084,8.084,8.084h32.337
			c4.466,0,8.084-3.62,8.084-8.084C134.737,111.409,131.118,107.789,126.653,107.789z"/>
	</g>
</g>
<g>
	<g>
		<path d="M503.916,420.379h-78.147V51.2c0-28.231-22.969-51.2-51.2-51.2H94.316c-28.231,0-51.2,22.969-51.2,51.2v175.802
			C18.712,230.89,0,252.077,0,277.558c0,28.231,22.969,51.2,51.2,51.2h78.147V460.8c0,28.231,22.969,51.2,51.2,51.2H460.8
			c28.231,0,51.2-22.969,51.2-51.2v-32.337C512,423.999,508.382,420.379,503.916,420.379z M51.2,312.589
			c-19.317,0-35.032-15.716-35.032-35.032c0-19.316,15.715-35.032,35.032-35.032h199.848c-8.617,9.166-13.911,21.489-13.911,35.032
			s5.295,25.865,13.911,35.032H51.2z M180.547,495.832c-19.347,0-35.032-15.684-35.032-35.032V328.758h142.821
			c28.277,0,51.2-22.922,51.2-51.2V164.489c0-4.465-3.62-8.084-8.084-8.084s-8.084,3.62-8.084,8.084V276.86
			c0,19.602-16.04,36.059-35.638,35.725c-19.038-0.326-34.425-15.914-34.425-35.027c0-19.218,15.555-34.872,34.737-35.031
			c4.363-0.037,8.174-3.352,8.371-7.711c0.209-4.635-3.486-8.458-8.076-8.458H59.284V51.2c0-19.347,15.684-35.032,35.032-35.032
			H337.28c-8.616,9.166-13.911,21.489-13.911,35.032v73.91c0,4.465,3.62,8.084,8.084,8.084s8.084-3.62,8.084-8.084V51.897
			c0-19.6,16.04-36.059,35.638-35.725C394.213,16.498,409.6,32.087,409.6,51.2v409.6c0,13.543,5.296,25.865,13.911,35.032H180.547z
			 M495.832,460.8c0,19.316-15.715,35.032-35.032,35.032s-35.032-15.716-35.032-35.032v-24.253h70.063V460.8z"/>
	</g>
</g>
<g>
</g>
<g>
</g>
<g>
</g>
<g>
</g>
<g>
</g>
<g>
</g>
<g>
</g>
<g>
</g>
<g>
</g>
<g>
</g>
<g>
</g>
<g>
</g>
<g>
</g>
<g>
</g>
<g>
</g>
</svg>
