<?xml version="1.0" encoding="UTF-8"?>
<svg width="152px" height="152px" viewBox="0 0 152 152" version="1.1" xmlns="http://www.w3.org/2000/svg" xmlns:xlink="http://www.w3.org/1999/xlink">
    <!-- Generator: Sketch 47.1 (45422) - http://www.bohemiancoding.com/sketch -->
    <title>Untitled copy</title>
    <desc>Created with Sketch.</desc>
    <defs></defs>
    <g id="Page-1" stroke="none" stroke-width="1" fill="none" fill-rule="evenodd">
        <g id="cooperate" transform="translate(1.000000, 1.000000)">
            <circle id="Oval-6" stroke="#979797" fill="#843E0D" cx="75" cy="75" r="75"></circle>
            <path d="M120.880529,57.3681703 L97.099471,33.5610325 C96.4542059,32.9150648 95.6011157,32.562752 94.6832059,32.5642185 C93.7706063,32.5673347 92.9149525,32.9273462 92.2738989,33.5777133 L91.1496288,34.7187886 C89.7453899,36.143987 87.8821046,37.0845263 85.9027301,37.3675496 L84.1795207,37.6139119 C82.0816768,37.9139826 80.079231,38.7736843 78.410221,40.0731353 L73.3742602,35.0320573 C72.1033223,33.7597354 70.4136214,33.0591427 68.616071,33.0591427 L62.3675832,33.0591427 C61.6955846,33.0591427 61.0636863,32.7971995 60.5885265,32.3215223 C59.6107412,31.3426722 58.3108726,30.8035714 56.9280571,30.8035714 C55.5452415,30.8035714 54.2453729,31.3426722 53.2675876,32.3215223 L29.7335393,55.8815646 C27.5888202,58.0286192 27.5888202,61.5222342 29.7335393,63.6694721 C30.1158644,64.0522135 30.3685505,64.558136 30.4449056,65.0941206 L31.268882,70.8678698 C31.4734113,72.3011337 32.1492551,73.6544764 33.1720845,74.6786029 L38.4409559,79.9532119 L37.6067255,80.7883507 C34.5935353,83.8048221 34.5935353,88.7126373 37.6067255,91.7291087 C39.0662624,93.190235 41.0070016,93.9951284 43.0711541,93.9951284 C43.4712404,93.9951284 43.8667491,93.964883 44.2549335,93.9054921 C43.8947643,96.2589484 44.6180325,98.7480506 46.4249212,100.556907 C48.2318099,102.365763 50.7180214,103.089636 53.0691008,102.729258 C53.0097745,103.117865 52.9795621,103.513804 52.9795621,103.914326 C52.9795621,105.980726 53.7835799,107.923396 55.2431168,109.384522 C56.7026537,110.845648 58.6433929,111.650542 60.7075453,111.650542 C61.1076317,111.650542 61.5031404,111.620296 61.8913248,111.560905 C61.5311556,113.914362 62.2544237,116.403464 64.0613125,118.21232 C65.5679076,119.720556 67.5467327,120.47449 69.525741,120.47449 C71.3205447,120.47449 73.1140667,119.851986 74.5563917,118.611376 C75.9897444,119.893779 77.7964501,120.535714 79.603705,120.535714 C81.5449935,120.535714 83.4860988,119.796078 84.9637632,118.316437 L84.9639463,118.316254 L85.1723208,118.107469 C86.9339824,116.344073 87.6449825,113.92151 87.3067859,111.625245 C87.6762936,111.67987 88.0490971,111.707733 88.4219007,111.707733 C90.3631891,111.707733 92.3041113,110.968096 93.7817757,109.489006 L93.9906995,109.279855 C95.7523611,107.516275 96.4633612,105.093529 96.1251647,102.797447 C96.4946723,102.852072 96.8674759,102.879935 97.2402794,102.879935 C99.1815679,102.879935 101.12249,102.140298 102.600338,100.660841 L102.808895,100.452056 C104.570374,98.6886597 105.281557,96.2660973 104.94336,93.9698323 C105.312868,94.0244572 105.685672,94.0523196 106.058292,94.0523196 C107.999397,94.0523196 109.940686,93.3126829 111.41835,91.8330428 L111.418533,91.8328595 L111.626908,91.6240748 C114.47457,88.7733113 114.577476,84.2009448 111.937455,81.2242506 L114.060568,79.0988261 C116.361293,76.7955954 117.628569,73.7331144 117.628569,70.4757798 L117.628569,70.0431794 C117.628569,67.0738174 118.783784,64.281895 120.881078,62.1823165 C122.206399,60.8551864 122.206399,58.6954837 120.880529,57.3681703 Z M69.5255579,117.489914 C68.2588315,117.489914 67.0675447,116.99609 66.1717907,116.099177 C65.2760368,115.202264 64.7825665,114.010047 64.7825665,112.741574 C64.7825665,111.653108 65.1469472,110.621282 65.8161991,109.783394 C66.0174325,110.046437 66.2360609,110.300315 66.4762958,110.540811 L72.4263211,116.497316 C71.5992319,117.140168 70.5895861,117.489914 69.5255579,117.489914 Z M83.0611101,115.994693 L82.8527356,116.203478 C81.0612278,117.99712 78.145633,117.997303 76.3537589,116.203478 L68.5867741,108.428035 C66.7950831,106.634393 66.7950831,103.715623 68.5867741,101.921981 L68.7953317,101.713197 C69.6912687,100.816284 70.8680901,100.367919 72.0449116,100.367919 C73.221733,100.367919 74.3983713,100.816284 75.2943084,101.713197 L83.0612932,109.488639 C84.8531672,111.282465 84.8531672,114.200868 83.0611101,115.994693 Z M91.879855,107.166711 L91.6711144,107.375496 C91.6711144,107.375496 91.6711144,107.375679 91.6709312,107.375679 C89.8792403,109.169321 86.9638286,109.169321 85.1721377,107.375679 L77.4051528,99.6002368 C75.6134619,97.8065947 75.6134619,94.887825 77.4051528,93.094183 L77.6137104,92.8853983 C78.5096474,91.9884857 79.6864689,91.540121 80.8631072,91.540121 C82.0397455,91.540121 83.2167501,91.9884857 84.1126871,92.8853983 L91.8796719,100.660841 C93.6713629,102.454666 93.6713629,105.373253 91.879855,107.166711 Z M100.697684,98.3392798 L100.489127,98.5480645 C98.6974359,100.341707 95.7820243,100.341707 93.9903333,98.5480645 L86.2233485,90.7726218 C85.3552435,89.9037549 84.8773372,88.7483818 84.8773372,87.5196866 C84.8773372,86.2909914 85.3552435,85.1358017 86.2237147,84.2665681 L86.4320892,84.0577834 C87.3280262,83.1608707 88.5046645,82.7125061 89.681486,82.7125061 C90.8581243,82.7125061 92.0351288,83.1608707 92.9308827,84.0577834 L100.697868,91.8334094 C102.489375,93.6270514 102.489375,96.5454545 100.697684,98.3392798 Z M109.515514,89.5116649 L109.307139,89.7204496 C107.515632,91.5139083 104.600037,91.5140916 102.808163,89.7204496 L95.0411779,81.9448236 C93.249487,80.1511816 93.249487,77.2325952 95.0411779,75.4389532 L95.2497355,75.2301685 C96.1456725,74.3332558 97.322494,73.8848912 98.4993154,73.8848912 C99.6761368,73.8848912 100.852775,74.3332558 101.748712,75.2301685 L109.515697,83.0056112 C111.307388,84.7992532 111.307388,87.7178396 109.515514,89.5116649 Z M118.78122,60.0578085 C116.284938,62.7461635 114.643211,66.1123813 114.643211,69.7828859 L114.643211,70.4763298 C114.643211,72.9181392 113.674214,75.2598639 111.94954,76.9864162 L109.837048,79.1012091 L103.859374,73.1170254 C100.899101,70.1535292 96.0995298,70.1535292 93.1390741,73.1170254 L92.9305165,73.3258101 C91.1688549,75.0892067 90.4578549,77.5117691 90.7960514,79.8080342 C88.5024673,79.4694693 86.0825401,80.1812437 84.3205123,81.9448236 L84.2035076,82.0619557 C82.8591443,83.4090661 82.0075189,85.1928096 81.9035148,87.0942351 C81.8747671,87.6161052 81.8993033,88.1315596 81.9729119,88.6347325 C79.6806095,88.2978175 77.2630627,89.0099584 75.5026828,90.7722552 L75.2941252,90.9810399 C73.5324637,92.7446199 72.8214636,95.1671822 73.1596601,97.4634473 C70.866076,97.1246992 68.4461488,97.8364735 66.6843041,99.6002368 L66.4757465,99.8090214 C64.5370215,101.750041 63.8699668,104.489538 64.4749486,106.979923 C64.3253511,107.051229 64.1843596,107.147281 64.0605801,107.271195 C62.0090619,109.324948 58.5305996,109.100399 56.7910939,106.597732 C56.4085857,106.047266 56.1483923,105.415413 56.035599,104.754414 C55.7673489,103.181288 56.2613686,101.64959 57.3532289,100.556724 L65.5415403,92.3594955 C66.1351696,91.7652198 66.1241832,90.7948018 65.5085813,90.2146406 C64.9136703,89.6539098 63.9644495,89.7125675 63.3865673,90.2910789 L55.2427506,98.4439471 C53.3697607,100.318793 50.3074981,100.29478 48.4650868,98.3720915 C46.725581,96.5566361 46.7744703,93.6684784 48.4647206,91.8071968 L48.536315,91.7283755 L56.7237109,83.5322472 C57.3065369,82.9487866 57.3065369,82.0027481 56.7237109,81.4194707 C56.141068,80.8358268 55.1960586,80.8360101 54.6132326,81.4194707 L46.4232732,89.6183486 C45.3229901,90.7183635 43.778492,91.2114546 42.1949925,90.9289812 C41.5464315,90.8133156 40.926435,90.5555884 40.3866389,90.177613 C39.0704739,89.2555875 38.3285289,87.8144415 38.3285289,86.2590963 C38.3285289,84.9909905 38.8218161,83.7984065 39.7177531,82.9016771 L53.4182837,69.1862273 C53.9937855,68.6100989 53.9957996,67.6763419 53.4226783,67.0980137 C53.4157202,67.0910481 53.4087622,67.0838992 53.4016211,67.0769336 C52.8253869,66.4954893 51.8862369,66.4940229 51.3078055,67.0730842 L40.5519835,77.8406188 L35.283112,72.5660098 C34.714019,71.996297 34.3379195,71.2430957 34.2240277,70.4455345 L33.4000513,64.6717853 C33.2290304,63.4737021 32.6427254,62.3916511 31.8062978,61.5178349 C30.8634856,60.5329357 30.8759368,58.9636593 31.8443838,57.9945244 L55.3284442,34.4843411 C55.7288967,34.0834525 56.2580727,33.8204095 56.8238698,33.7941968 C57.4403873,33.7657845 58.0250443,33.9897835 58.4619349,34.4185345 C59.4840319,35.4213976 60.8137467,36.0472018 62.2449022,36.0472018 C64.3152803,36.0472018 66.9675689,36.0472018 68.6173528,36.0472018 C69.6103359,36.0472018 70.561754,36.4420414 71.2637819,37.145017 L92.9588979,58.863758 C94.8350007,60.7419037 94.8848055,63.8656087 92.9772085,65.711676 C91.1236278,67.5055013 88.1574958,67.4866209 86.3273526,65.6546681 L71.5373421,50.848552 C70.4260726,49.7360723 68.624677,49.7360723 67.5134075,50.848552 L56.2487343,62.1254918 C55.6715846,62.70327 55.6715846,63.6397766 56.2487343,64.2171882 L56.2697915,64.2382683 C56.8469412,64.8160465 57.7824291,64.8160465 58.3592125,64.2382683 L69.5251917,53.06013 L84.1081095,67.6591112 C87.1330184,70.6873141 92.17374,70.7793334 95.1799722,67.7326166 C96.6537913,66.2390453 97.4479215,64.2503665 97.407272,62.1429058 C97.3679042,60.1018017 96.4846015,58.1673813 95.0424596,56.7240356 L80.5417564,42.2075418 C81.7394519,41.3502231 83.1396625,40.7812436 84.6012136,40.5722756 L86.3244229,40.3259133 C88.962063,39.9486711 91.4034136,38.7161265 93.2745725,36.8172672 L94.3986594,35.6763753 C94.4991845,35.5744575 94.6143581,35.5526442 94.6930936,35.5524609 C94.7765899,35.5522776 94.8875521,35.5731744 94.9884434,35.6741756 L118.769685,59.4813134 C118.87021,59.5821313 118.89145,59.6970637 118.89145,59.7755184 C118.891816,59.8510401 118.872041,59.9599235 118.78122,60.0578085 Z" id="Shape" fill="#FFFFFF" fill-rule="nonzero"></path>
        </g>
    </g>
</svg>