<?xml version="1.0" encoding="UTF-8"?>
<svg width="74px" height="74px" viewBox="0 0 74 74" version="1.1" xmlns="http://www.w3.org/2000/svg" xmlns:xlink="http://www.w3.org/1999/xlink">
    <!-- Generator: Sketch 47.1 (45422) - http://www.bohemiancoding.com/sketch -->
    <title>Untitled</title>
    <desc>Created with Sketch.</desc>
    <defs></defs>
    <g id="Page-1" stroke="none" stroke-width="1" fill="none" fill-rule="evenodd">
        <g id="flickr" fill-rule="nonzero">
            <path d="M36.9135822,0 C57.3015959,0 73.8274178,16.5281027 73.8274178,36.9138356 C73.8274178,57.3018493 57.3015959,73.8274178 36.9135822,73.8274178 C16.5255685,73.8274178 0,57.3015959 0,36.9138356 C0,16.5281027 16.5258219,0 36.9135822,0 Z" id="Shape" fill="#E4E7E7"></path>
            <path d="M34.6342808,36.9044589 C34.6342808,41.9868904 30.4976301,46.1098562 25.3918836,46.1098562 C20.286137,46.1098562 16.1494863,41.9871438 16.1494863,36.9044589 C16.1494863,31.821774 20.286137,27.6967808 25.3918836,27.6967808 C30.4976301,27.6967808 34.6342808,31.8220274 34.6342808,36.9044589 Z" id="Shape" fill="#FF0084"></path>
            <path d="M57.7053014,36.9044589 C57.7053014,41.9868904 53.5686507,46.1098562 48.4629041,46.1098562 C43.3571575,46.1098562 39.2207603,41.9871438 39.2207603,36.9044589 C39.2207603,31.821774 43.357411,27.6967808 48.4629041,27.6967808 C53.5683973,27.6967808 57.7053014,31.8220274 57.7053014,36.9044589 Z" id="Shape" fill="#0063DC"></path>
        </g>
    </g>
</svg>