<?xml version="1.0" encoding="UTF-8"?>
<svg width="152px" height="152px" viewBox="0 0 152 152" version="1.1" xmlns="http://www.w3.org/2000/svg" xmlns:xlink="http://www.w3.org/1999/xlink">
    <!-- Generator: Sketch 47.1 (45422) - http://www.bohemiancoding.com/sketch -->
    <title>Untitled</title>
    <desc>Created with Sketch.</desc>
    <defs></defs>
    <g id="Page-1" stroke="none" stroke-width="1" fill="none" fill-rule="evenodd">
        <g id="report" transform="translate(1.000000, 1.000000)">
            <circle id="Oval-6-Copy" stroke="#979797" fill="#49A30E" cx="75" cy="75" r="75"></circle>
            <path d="M71.570997,58.9285714 L46.9557887,58.9285714 C46.1712696,58.9285714 45.5357143,59.5283011 45.5357143,60.2678571 C45.5357143,61.0074132 46.1714453,61.6071429 46.9557887,61.6071429 L71.570997,61.6071429 C72.3555161,61.6071429 72.9910714,61.0074132 72.9910714,60.2678571 C72.9910714,59.5283011 72.3555161,58.9285714 71.570997,58.9285714 Z" id="Shape" fill="#FFFFFF" fill-rule="nonzero"></path>
            <path d="M82.366099,58.9285714 L77.008901,58.9285714 C76.2690288,58.9285714 75.6696429,59.5283011 75.6696429,60.2678571 C75.6696429,61.0074132 76.2690288,61.6071429 77.008901,61.6071429 L82.366099,61.6071429 C83.1059712,61.6071429 83.7053571,61.0074132 83.7053571,60.2678571 C83.7053571,59.5283011 83.1059712,58.9285714 82.366099,58.9285714 Z" id="Shape" fill="#FFFFFF" fill-rule="nonzero"></path>
            <path d="M82.2918706,49.5535714 L59.6725899,49.5535714 C58.8916137,49.5535714 58.2589286,50.1533011 58.2589286,50.8928571 C58.2589286,51.6325789 58.8917886,52.2321429 59.6725899,52.2321429 L82.2916958,52.2321429 C83.072672,52.2321429 83.7053571,51.6324132 83.7053571,50.8928571 C83.705532,50.1533011 83.0728468,49.5535714 82.2918706,49.5535714 Z" id="Shape" fill="#FFFFFF" fill-rule="nonzero"></path>
            <path d="M52.2321705,49.5535714 L46.8749724,49.5535714 C46.1351002,49.5535714 45.5357143,50.1533011 45.5357143,50.8928571 C45.5357143,51.6325789 46.1352659,52.2321429 46.8749724,52.2321429 L52.2321705,52.2321429 C52.9720426,52.2321429 53.5714286,51.6324132 53.5714286,50.8928571 C53.5714286,50.1533011 52.971877,49.5535714 52.2321705,49.5535714 Z" id="Shape" fill="#FFFFFF" fill-rule="nonzero"></path>
            <path d="M118.449285,104.478393 L104.753391,104.478393 L104.753391,39.7767857 C104.753391,34.8290745 100.727888,30.8035714 95.7801767,30.8035714 L46.6635707,30.8035714 C41.7158595,30.8035714 37.6903564,34.8290745 37.6903564,39.7767857 L37.6903564,70.5875087 C33.413358,71.2689122 30.1339286,74.9821054 30.1339286,79.4478568 C30.1339286,84.395568 34.1594317,88.4210711 39.1071429,88.4210711 L52.8030369,88.4210711 L52.8030369,111.5625 C52.8030369,116.510211 56.82854,120.535714 61.7762512,120.535714 L110.892857,120.535714 C115.840568,120.535714 119.866071,116.510211 119.866071,111.5625 L119.866071,105.895179 C119.866071,105.112827 119.231988,104.478393 118.449285,104.478393 Z M39.1071429,85.587323 C35.7216823,85.587323 32.9675014,82.8329668 32.9675014,79.4476815 C32.9675014,76.0623962 35.7216823,73.3080401 39.1071429,73.3080401 L74.1321219,73.3080401 C72.621923,74.9144557 71.6941066,77.0741612 71.6941066,79.4476815 C71.6941066,81.8212019 72.6220982,83.9807321 74.1321219,85.587323 L39.1071429,85.587323 Z M61.7762512,117.702141 C58.3855329,117.702141 55.6366098,114.953394 55.6366098,111.5625 L55.6366098,88.4210711 L80.6671456,88.4210711 C85.6229187,88.4210711 89.6403599,84.4038051 89.6403599,79.4478568 L89.6403599,59.6315996 C89.6403599,58.8490723 89.0059256,58.2148132 88.2235735,58.2148132 C87.4412214,58.2148132 86.8067871,58.8492475 86.8067871,59.6315996 L86.8067871,79.3255266 C86.8067871,82.7609358 83.9956473,85.6451582 80.5609392,85.586622 C77.2243757,85.5294878 74.5276794,82.7975647 74.5276794,79.4478568 C74.5276794,76.0797468 77.2538191,73.3362566 80.6156198,73.3083906 C81.3802708,73.301906 82.0481794,72.7209255 82.0827053,71.9569754 C82.1193342,71.1446542 81.4717555,70.4746425 80.6673209,70.4746425 L40.5239293,70.4746425 L40.5239293,39.7767857 C40.5239293,36.3860674 43.2726772,33.6371443 46.6635707,33.6371443 L89.2449777,33.6371443 C87.734954,35.2435599 86.8069624,37.4032654 86.8069624,39.7767857 L86.8069624,52.7301113 C86.8069624,53.5126386 87.4413967,54.1468977 88.2237488,54.1468977 C89.0061009,54.1468977 89.6405352,53.5124634 89.6405352,52.7301113 L89.6405352,39.8989406 C89.6405352,36.463882 92.451675,33.5793091 95.8863831,33.6378453 C99.2229466,33.6949794 101.919643,36.4270778 101.919643,39.7767857 L101.919643,111.5625 C101.919643,113.93602 102.84781,116.095551 104.357658,117.702141 L61.7762512,117.702141 Z M117.032499,111.5625 C117.032499,114.947785 114.278318,117.702141 110.892857,117.702141 C107.507397,117.702141 104.753216,114.947785 104.753216,111.5625 L104.753216,107.311966 L117.032323,107.311966 L117.032323,111.5625 L117.032499,111.5625 Z" id="Shape" fill="#FFFFFF" fill-rule="nonzero"></path>
        </g>
    </g>
</svg>