<?xml version="1.0" encoding="UTF-8"?>
<svg width="152px" height="152px" viewBox="0 0 152 152" version="1.1" xmlns="http://www.w3.org/2000/svg" xmlns:xlink="http://www.w3.org/1999/xlink">
    <!-- Generator: Sketch 47.1 (45422) - http://www.bohemiancoding.com/sketch -->
    <title>Untitled 2</title>
    <desc>Created with Sketch.</desc>
    <defs></defs>
    <g id="Page-1" stroke="none" stroke-width="1" fill="none" fill-rule="evenodd">
        <g id="networking" transform="translate(1.000000, 1.000000)" stroke="#979797">
            <path d="M75,150 C116.421356,150 150,116.421356 150,75 C150,33.5786438 116.421356,0 75,0 C33.5786438,0 0,33.5786438 0,75 C0,116.421356 33.5786438,150 75,150 Z" id="Oval-6-Copy-2" fill="#38CDF7"></path>
            <path d="M109.731632,24.1200335 C109.565262,24.111574 109.397885,24.1071429 109.229501,24.1071429 C109.061118,24.1071429 108.893539,24.111574 108.727371,24.1200335 C100.878792,24.3859037 94.5748728,30.8495703 94.5748728,38.7618266 C94.5748728,39.0502554 94.5855478,39.3362673 94.6022653,39.6206678 L86.1659543,41.4954554 C85.4211177,41.66102 84.8909907,42.3216671 84.8909907,43.0848354 C84.8909907,44.1265631 85.8555722,44.900205 86.8725218,44.6742154 L95.1537425,42.8340715 C95.5434825,44.1755074 96.119331,45.4387936 96.852284,46.5929118 C96.8639661,46.6130535 96.8718213,46.6344037 96.8845105,46.6541426 C99.0531571,50.039959 102.439162,52.3332907 106.274527,53.1168021 C106.277749,53.1174063 106.281173,53.1180106 106.284597,53.1190177 C106.462851,53.1552727 106.642917,53.1854852 106.822781,53.2154963 L84.6142451,103.689338 C82.8846855,102.781754 80.9194691,102.265523 78.8346117,102.265523 C76.6274946,102.265523 74.5539164,102.843589 72.7530556,103.852688 L48.0650881,68.8780697 C51.1580329,67.3748961 53.8298167,65.0306059 55.7587782,62.0188205 C55.7646192,62.0097567 55.7678419,61.9998873 55.7732801,61.9908236 C57.6583329,59.0418802 58.7522234,55.5406519 58.7522234,51.7882568 C58.7522234,51.5000294 58.7445696,51.2132119 58.7318804,50.9278043 L78.9407579,46.4370152 C79.6855944,46.2714506 80.2157215,45.6108035 80.2157215,44.8476353 C80.2157215,43.8059075 79.25114,43.0322656 78.2341904,43.2582553 L58.3050798,47.6870079 C56.3789382,38.9690845 48.4473757,32.480845 39.0881764,32.8033133 C29.1186864,33.1465275 21.04291,41.2795366 20.7663658,51.2514811 C20.6567955,55.2063 21.7631738,58.9018955 23.7376553,61.991025 C23.743295,62.0000887 23.7465176,62.0099582 23.7521573,62.0190219 C26.5621125,66.4060813 30.9485511,69.3779862 35.9172836,70.3953425 C35.925743,70.3971552 35.9340011,70.3987666 35.9424606,70.4005793 C36.0800277,70.4285762 36.2181991,70.4553647 36.3567734,70.4803404 C36.3976608,70.4877928 36.4385483,70.494641 36.4794358,70.501892 C36.6029038,70.5234436 36.7265732,70.5445923 36.8506455,70.5635255 C36.9128831,70.5729921 36.9757249,70.5812502 37.0381639,70.5903139 C37.2045335,70.6142825 37.371306,70.6358341 37.5386827,70.6553716 C37.6484545,70.6682622 37.7584276,70.6809515 37.8686022,70.691828 C37.9437304,70.6992804 38.0188586,70.7055243 38.0941882,70.7119697 C38.2063769,70.7216377 38.3187671,70.7307014 38.4315601,70.7383553 C38.5030628,70.7433907 38.5745655,70.7478219 38.6462696,70.7520516 C38.769939,70.7593026 38.8942127,70.7649423 39.0184864,70.7695749 C39.0789112,70.7717905 39.1391346,70.7748117 39.1997609,70.7764231 C39.3844594,70.7818613 39.5697621,70.785084 39.7554677,70.785084 C39.9411733,70.785084 40.1266775,70.7816599 40.3111746,70.7764231 C40.3718008,70.7746103 40.4320242,70.7717905 40.492449,70.7695749 C40.6169242,70.7647409 40.740795,70.7591012 40.8644645,70.7520516 C40.9361686,70.7478219 41.0076713,70.7433907 41.079174,70.7383553 C41.1917655,70.7305 41.3043571,70.7214363 41.4165459,70.7119697 C41.491674,70.7055243 41.5670036,70.699079 41.6421318,70.691828 C41.7525078,70.6809515 41.8622796,70.6682622 41.9720513,70.6553716 C42.139428,70.6360355 42.3062005,70.6140811 42.4723688,70.5903139 C42.5348077,70.5812502 42.5976495,70.5731935 42.6598871,70.5635255 C42.7841608,70.5443909 42.9076288,70.5234436 43.0310969,70.501892 C43.0719843,70.494641 43.1128718,70.4877928 43.1537592,70.4803404 C43.2923335,70.4553647 43.4303035,70.4285762 43.568072,70.4005793 C43.5765315,70.3987666 43.5847896,70.3971552 43.5932491,70.3953425 C44.0411983,70.3036978 44.4822995,70.190703 44.9199765,70.0674359 C44.9262204,70.0767011 44.9314573,70.0865705 44.9379026,70.0958357 L70.1420994,105.801395 C67.8062775,108.07096 66.3510466,111.242469 66.3510466,114.748934 C66.3510466,117.201586 67.064865,119.489278 68.2914888,121.420664 C68.3015596,121.437583 68.3078035,121.45571 68.3184785,121.472025 C70.1660679,124.356717 73.0509499,126.310258 76.3185224,126.977351 C76.3205366,126.977753 76.3227522,126.978156 76.3245649,126.978559 C76.5249739,127.019447 76.7265913,127.055903 76.9296187,127.086921 C76.9368697,127.087928 76.9439192,127.088936 76.9511702,127.089943 C77.1384871,127.118141 77.327214,127.14211 77.5165451,127.16205 C77.538298,127.164265 77.5598495,127.167085 77.581401,127.169301 C77.7681137,127.188033 77.955632,127.20193 78.143956,127.212203 C78.1820237,127.214418 78.2200913,127.215828 78.2583603,127.217641 C78.4497056,127.226302 78.6414537,127.232143 78.8346117,127.232143 C79.0275682,127.232143 79.2193163,127.226302 79.410863,127.217641 C79.449132,127.215828 79.4871996,127.214418 79.5252673,127.212203 C79.7137927,127.20193 79.901311,127.187831 80.0878223,127.169301 C80.1095752,127.167085 80.1309253,127.164265 80.1526783,127.16205 C80.3422107,127.142311 80.5307362,127.118342 80.7180531,127.089943 C80.7253041,127.088936 80.7323536,127.087928 80.7396046,127.086921 C80.942632,127.055903 81.1442494,127.019447 81.3446584,126.978559 C81.3466726,126.978156 81.3488881,126.977753 81.3507009,126.977351 C84.6184748,126.310258 87.5031554,124.356717 89.3507448,121.472025 C89.3614198,121.455509 89.3676637,121.437381 89.3777345,121.420664 C90.6043583,119.489278 91.3181767,117.201385 91.3181767,114.748934 C91.3181767,111.142969 89.7795595,107.891296 87.3267149,105.610251 L110.311307,53.3724 C110.440817,53.3631348 110.571134,53.3556824 110.699838,53.3427917 C110.768521,53.3359436 110.835794,53.3242614 110.908506,53.3305053 C111.080313,53.3446045 111.245072,53.3079466 111.409629,53.2563839 C111.427958,53.2507442 111.446891,53.2489315 111.465824,53.2461117 C111.703495,53.2098566 111.939756,53.1671563 112.174405,53.1194205 C112.177628,53.1188162 112.181052,53.1178092 112.184476,53.1172049 C116.019841,52.3336935 119.405846,50.0403618 121.574492,46.6545454 C121.587181,46.6348065 121.594835,46.6132549 121.606719,46.5933147 C123.046239,44.3259657 123.883929,41.6406769 123.883929,38.762028 C123.883929,30.8497717 117.580211,24.3861051 109.731632,24.1200335 Z M55.4959302,51.7882568 C55.4959302,54.2390965 54.9323681,56.5606266 53.928712,58.6309899 C52.010627,57.2257048 49.6383488,56.1368456 47.0008057,55.431484 C50.1688787,53.1651421 52.2392342,49.4584687 52.2392342,45.2750417 C52.2392342,43.9605957 52.0335884,42.693684 51.6555305,41.5029078 C54.0451305,44.2639294 55.4959302,47.858615 55.4959302,51.7882568 Z M39.2815358,36.0600216 C39.439446,36.055389 39.5967519,36.048138 39.7556691,36.048138 C39.9145864,36.048138 40.0718923,36.0555904 40.2298025,36.0600216 C45.0982297,36.3077642 48.9825382,40.3463726 48.9825382,45.2750417 C48.9825382,50.3630316 44.8434384,54.5021468 39.7554677,54.5021468 C34.667497,54.5021468 30.5283973,50.3630316 30.5283973,45.2750417 C30.5288001,40.3463726 34.4131085,36.3077642 39.2815358,36.0600216 Z M25.5828277,58.6309899 C24.5791716,56.5606266 24.0156095,54.2390965 24.0156095,51.7882568 C24.0156095,47.858615 25.4662078,44.2637279 27.8560092,41.5029078 C27.4777499,42.693684 27.2723055,43.9607971 27.2723055,45.2750417 C27.2723055,49.4584687 29.3428624,53.1651421 32.5109354,55.431484 C29.8731909,56.1368456 27.5007113,57.2257048 25.5828277,58.6309899 Z M42.171856,67.3428708 C42.1597711,67.344885 42.1476861,67.3466977 42.1356011,67.3487119 C41.8963189,67.3851684 41.6552239,67.4153809 41.4125175,67.4407594 C41.3780754,67.4443849 41.3436332,67.4480104 41.3091911,67.4512331 C41.0737357,67.474396 40.8366691,67.4927249 40.5983939,67.5056156 C40.5659659,67.5074284 40.5335379,67.508234 40.5009085,67.5096439 C40.2539724,67.5211247 40.0056265,67.5285771 39.7558706,67.5285771 C39.5061147,67.5285771 39.2575673,67.5211247 39.0106312,67.5096439 C38.9782032,67.5080326 38.9457752,67.5072269 38.9131458,67.5056156 C38.6746692,67.4929263 38.4380054,67.4745974 38.2023486,67.4512331 C38.1679065,67.447809 38.1332629,67.4445863 38.0990222,67.4407594 C37.8563158,67.4153809 37.6150194,67.3849669 37.3759386,67.3487119 C37.3638536,67.3468992 37.3517686,67.344885 37.3396837,67.3428708 C33.2738994,66.7138462 29.7203161,64.5212228 27.3065462,61.4032907 C30.3026099,59.1031109 34.8366865,57.7586537 39.756072,57.7586537 C44.6754575,57.7586537 49.2095341,59.1029094 52.2053963,61.4030893 C49.791425,64.5212228 46.2376403,66.7136447 42.171856,67.3428708 Z M78.5695481,105.528878 C78.6579698,105.526461 78.7455858,105.522231 78.8346117,105.522231 C78.9236375,105.522231 79.0112535,105.526663 79.0996752,105.528878 C81.8202017,105.667251 83.9908624,107.924127 83.9908624,110.678502 C83.9908624,113.521701 81.6778005,115.834772 78.8346117,115.834772 C75.9914228,115.834772 73.6783609,113.521701 73.6783609,110.678502 C73.6783609,107.924127 75.849223,105.66705 78.5695481,105.528878 Z M69.6077426,114.749135 C69.6077426,113.395614 69.9030185,112.110575 70.4289158,110.951421 C70.5024327,113.24012 71.4938025,115.30001 73.047123,116.775388 C72.0261451,117.129277 71.0841222,117.579243 70.2442173,118.110379 C69.8349399,117.068047 69.6077426,115.934876 69.6077426,114.749135 Z M82.0091299,123.413079 C82.0040945,123.415093 81.9990591,123.416704 81.9940237,123.418517 C81.8620962,123.466656 81.7285574,123.511975 81.5936086,123.554272 C81.5722585,123.560919 81.5511099,123.567163 81.5297598,123.573407 C81.4089101,123.610467 81.286852,123.645514 81.1639882,123.677539 C81.1257192,123.68761 81.0870473,123.696271 81.0489797,123.705536 C80.940215,123.732526 80.8310475,123.758509 80.7206715,123.78147 C80.6648793,123.792951 80.6084828,123.802418 80.5524891,123.813093 C80.4570179,123.831019 80.3613453,123.849549 80.264867,123.864454 C80.1905445,123.875935 80.1154163,123.884596 80.0406909,123.894465 C79.9597217,123.90514 79.8789538,123.917024 79.7973803,123.925483 C79.7000964,123.935554 79.6022082,123.941798 79.50432,123.948848 C79.4428881,123.953279 79.381859,123.959724 79.3202257,123.962947 C79.1590929,123.971205 78.9973558,123.975837 78.8348131,123.975837 C78.6722703,123.975837 78.5105332,123.971205 78.3494004,123.962947 C78.2875657,123.959724 78.226738,123.95348 78.1653061,123.948848 C78.0674179,123.941999 77.9695297,123.935353 77.8722458,123.925483 C77.7906723,123.917024 77.7101059,123.90514 77.6289352,123.894465 C77.5540084,123.884596 77.4790817,123.875935 77.4047591,123.864454 C77.3080794,123.849348 77.2126082,123.831019 77.117137,123.813093 C77.0611434,123.802418 77.0047469,123.793152 76.9489546,123.78147 C76.8385786,123.758509 76.7294111,123.732324 76.6206465,123.705536 C76.582176,123.696271 76.5435041,123.68761 76.5056379,123.677539 C76.3825727,123.645312 76.260716,123.610467 76.1398664,123.573407 C76.1185163,123.566961 76.0971662,123.560717 76.0760175,123.554272 C75.9412702,123.511975 75.8077313,123.466857 75.6756024,123.418517 C75.670567,123.416704 75.6655316,123.415093 75.6602948,123.413079 C74.2205729,122.883957 72.9494362,122.004773 71.9475928,120.880263 C73.7033365,119.757364 76.2089521,119.091077 78.8348131,119.091077 C81.460674,119.091077 83.9662897,119.757364 85.7220333,120.880263 C84.7199885,122.004773 83.4488518,122.883957 82.0091299,123.413079 Z M88.0616821,114.749135 C88.0616821,115.934876 87.8342834,117.068047 87.4252074,118.110379 C86.5857053,117.579243 85.6434811,117.129277 84.6223017,116.775388 C86.1756223,115.300211 87.166992,113.240322 87.2405089,110.951421 C87.7664062,112.110575 88.0616821,113.395614 88.0616821,114.749135 Z M109.2293,27.3638511 C112.820749,27.3638511 115.742491,30.2856033 115.742491,33.8770663 C115.742491,37.4685293 112.820749,40.3902814 109.2293,40.3902814 C105.63785,40.3902814 102.716109,37.4685293 102.716109,33.8770663 C102.716311,30.2856033 105.638052,27.3638511 109.2293,27.3638511 Z M97.8313674,38.762028 C97.8313674,36.5772599 98.4503189,34.5348936 99.5204423,32.7990835 C99.4813676,33.1533757 99.4596147,33.5127033 99.4596147,33.8772677 C99.4596147,36.8612576 100.805678,39.5352671 102.920748,41.3288837 C101.379311,41.8116798 99.9708086,42.4689028 98.7671463,43.2802097 C98.1663223,41.8936564 97.8313674,40.3665142 97.8313674,38.762028 Z M113.167185,49.4580659 C113.154899,49.4626984 113.142411,49.467331 113.130125,49.4719636 C112.981882,49.5261447 112.831425,49.5762975 112.680362,49.6246376 C112.637864,49.6381325 112.595566,49.6516274 112.552665,49.6645181 C112.42114,49.7046 112.288608,49.742265 112.155069,49.7777143 C112.089408,49.7950362 112.023948,49.8113509 111.958085,49.8276657 C111.840659,49.8566697 111.722831,49.8842638 111.603794,49.9096423 C111.518393,49.9275684 111.43259,49.9436818 111.346585,49.9597951 C111.241849,49.979534 111.137516,49.9992728 111.031974,50.0161918 C110.92764,50.032708 110.822299,50.0462029 110.71716,50.0598993 C110.625919,50.0717829 110.535282,50.0850764 110.443637,50.0949458 C110.315335,50.1086421 110.186026,50.1177059 110.056717,50.1269711 C109.984812,50.1322079 109.913913,50.1396603 109.841605,50.1432858 C109.638376,50.1541623 109.434341,50.1602048 109.229099,50.1602048 C109.023856,50.1602048 108.819821,50.1541623 108.616592,50.1432858 C108.544485,50.1394589 108.473386,50.1320065 108.40148,50.1269711 C108.272372,50.1177059 108.142862,50.1084407 108.01456,50.0949458 C107.922714,50.0850764 107.831875,50.0719843 107.741037,50.0598993 C107.635898,50.0462029 107.530758,50.032708 107.426224,50.0161918 C107.320682,49.9992728 107.216147,49.979534 107.111612,49.9597951 C107.025607,49.9436818 106.939602,49.9275684 106.854403,49.9096423 C106.735568,49.8842638 106.617538,49.8566697 106.500113,49.8276657 C106.434249,49.8115523 106.368588,49.7950362 106.303128,49.7777143 C106.169589,49.742265 106.037258,49.7048014 105.905532,49.6645181 C105.862832,49.651426 105.820333,49.6379311 105.777835,49.6246376 C105.626773,49.5764989 105.476315,49.5263462 105.328073,49.4719636 C105.315786,49.467331 105.303298,49.4626984 105.291012,49.4580659 C103.400722,48.7599552 101.745284,47.5738117 100.476766,46.0539205 C102.648836,44.5483299 105.862027,43.6467883 109.2293,43.6467883 C112.596573,43.6467883 115.809764,44.5481285 117.981431,46.0539205 C116.713115,47.5738117 115.057475,48.7601566 113.167185,49.4580659 Z M119.691454,43.2800083 C118.487791,42.4685 117.079289,41.811277 115.537852,41.3286823 C117.653123,39.5352671 118.999187,36.8610562 118.999187,33.8770663 C118.999187,33.5125019 118.977434,33.1531743 118.938359,32.7988821 C120.008482,34.5348936 120.627434,36.5772599 120.627434,38.7618266 C120.627434,40.3665142 120.292479,41.8936564 119.691454,43.2800083 Z" id="Shape" fill="#FFFFFF" fill-rule="nonzero"></path>
        </g>
    </g>
</svg>