<svg xmlns="http://www.w3.org/2000/svg" viewBox="104 323.872 442.04 95.59"><defs><style>.a{fill:#843d0d;}.b{fill:#bf9000;}.c{fill:#49a30d;}</style></defs><path class="a" d="M346.491,388.915S333.9,412.233,309.307,413.9c-22.1-.4-45.617-18.536-45.024-43.926s22.6-46.212,45.024-46.09c18.436-.532,44.455,17.767,35.066,25.236-7.649,4.3-10.734-15.349-36.063-15.428-19.01-.175-37.225,16.937-37.225,36.282s14.227,39.908,38.221,40.458C333.764,411.593,346.491,388.915,346.491,388.915Z"/><path class="b" d="M330.865,354.963s2.156,36.284-32.862,38.643a35.417,35.417,0,0,1-34.52-34.414c.454-19.46,18.121-35.405,35.306-35.311,14.13-.408,34.073,13.618,26.877,19.342-5.863,3.3-8.228-11.764-27.641-11.825-14.571-.134-28.531,12.982-28.531,27.809s8.807,28.672,27.848,30.123C329.116,388.115,330.865,354.963,330.865,354.963Z" transform="translate(772.617 318.347) rotate(123)"/><path class="c" d="M299.718,352.565s-5.446,10.3-16.048,11.037c-9.529-.175-19.648-8.193-19.393-19.393s9.745-20.386,19.411-20.332c7.948-.235,19.165,7.838,15.118,11.132-3.3,1.9-4.628-6.771-15.548-6.806-8.2-.077-16.048,7.471-16.048,16.005s6.134,17.6,16.478,17.847C294.231,362.569,299.718,352.565,299.718,352.565Z" transform="translate(748.209 416.334) rotate(135)"/><path class="c" d="M291.227,345.2s-4.128,7.887-12.19,8.433c-7.246-.13-14.955-6.32-14.761-14.643s7.41-15.15,14.761-15.11c6.044-.174,14.574,5.825,11.5,8.274-2.508,1.411-3.519-5.032-11.823-5.058-6.232-.057-12.2,5.553-12.2,11.895s4.664,13.083,12.531,13.264C287.055,352.631,291.227,345.2,291.227,345.2Z" transform="translate(741.694 386.814) rotate(131)"/><path class="c" d="M284.981,372.328c-1.751.453-1.754,2.039-1.772,5.279.329,2.09,3.328,16.352,20.334,16.843a36.883,36.883,0,0,0,10.786-2.35l-6.481-4.583-4.3-1.181a28.3,28.3,0,0,1-6.152-.736c-3.633-1.224-8.13-9.994-8.13-9.994S286.732,371.876,284.981,372.328Z" transform="translate(1.45 0.276)"/><path class="c" d="M306.483,358.041s-6.308,11.891-18.934,12.766c-11.347-.209-23.576-9.379-23.272-22.717s11.6-24.276,23.115-24.212c9.465-.279,22.823,9.333,18,13.257-3.927,2.26-5.511-8.063-18.515-8.1-9.76-.092-19.111,8.9-19.111,19.06s7.3,20.965,19.623,21.254C299.949,369.954,306.483,358.041,306.483,358.041Z" transform="translate(755.993 413.551) rotate(135)"/><path class="c" d="M299.718,352.565s-5.446,10.3-16.048,11.037c-9.529-.175-19.648-8.193-19.393-19.393s9.745-20.386,19.411-20.332c7.948-.235,19.165,7.838,15.118,11.132-3.3,1.9-4.628-6.771-15.548-6.806-8.2-.077-16.048,7.471-16.048,16.005s6.134,17.6,16.478,17.847C294.231,362.569,299.718,352.565,299.718,352.565Z" transform="translate(748.209 416.334) rotate(135)"/><path class="b" d="M14.52-11.792a5.473,5.473,0,0,0-1.76-1.6,5.1,5.1,0,0,0-2.574-.6,5.072,5.072,0,0,0-2.013.429,5.127,5.127,0,0,0-1.782,1.287,6.592,6.592,0,0,0-1.265,2.145,8.583,8.583,0,0,0-.484,3.025,7.893,7.893,0,0,0,.363,2.442A5.841,5.841,0,0,0,6.05-2.717,4.74,4.74,0,0,0,7.722-1.43a5.3,5.3,0,0,0,2.266.462q.286,0,.649-.033t.7-.077a4.76,4.76,0,0,0,.627-.121,1.485,1.485,0,0,0,.418-.165,4.96,4.96,0,0,0,.055-.66q.011-.4.011-.88,0-1.782-.066-2.629T12.3-6.688a5.756,5.756,0,0,0,.583.077q.363.033,1.045.033.792,0,1.177-.033a5.759,5.759,0,0,0,.6-.077,4,4,0,0,0-.077.572q-.033.4-.055.913t-.033,1.1q-.011.583-.011,1.111v.726q0,.55.011,1.023a3.936,3.936,0,0,0,.055.671,25.341,25.341,0,0,1-2.937.66A18.237,18.237,0,0,1,9.724.33,11.717,11.717,0,0,1,6.237-.165a7.946,7.946,0,0,1-2.75-1.452,6.765,6.765,0,0,1-1.8-2.31,6.957,6.957,0,0,1-.649-3.047,9.017,9.017,0,0,1,.693-3.663,7.217,7.217,0,0,1,1.914-2.618,8.176,8.176,0,0,1,2.893-1.573,11.92,11.92,0,0,1,3.608-.528,10.835,10.835,0,0,1,2.893.341,11.79,11.79,0,0,1,2.409.979q-.176.572-.341,1.122a11.383,11.383,0,0,0-.275,1.122Zm4.554,2.816q0-1.826-.044-3.245T18.9-15.07q.374.044.814.077t.99.033q.55,0,.99-.033t.814-.077q-.088,1.43-.132,2.849T22.33-8.976v2.992q0,1.254.011,2.42t.033,2.024q1.254,0,2.508-.066t2.53-.22q-.044.242-.066.44a5.283,5.283,0,0,0-.022.55,5.283,5.283,0,0,0,.022.55,1.632,1.632,0,0,0,.066.33Q26.818.022,25.949.011T23.562,0H20.075q-.495,0-.748.011T18.9.044q.088-1.364.132-2.783t.044-3.245Zm22.99,1.012a8.629,8.629,0,0,0-.352-2.563,5.874,5.874,0,0,0-.979-1.925,4.289,4.289,0,0,0-1.518-1.221,4.429,4.429,0,0,0-1.947-.429,3.812,3.812,0,0,0-2.013.539A4.772,4.772,0,0,0,33.748-12.1a7.019,7.019,0,0,0-.935,2.167,10.632,10.632,0,0,0-.319,2.651,10.173,10.173,0,0,0,.374,2.97A5.354,5.354,0,0,0,33.88-2.365,3.768,3.768,0,0,0,35.354-1.3a4.75,4.75,0,0,0,1.76.33,4.448,4.448,0,0,0,1.892-.418,4.269,4.269,0,0,0,1.573-1.276A6.718,6.718,0,0,0,41.657-4.84,10.656,10.656,0,0,0,42.064-7.964ZM28.886-7.48a7.767,7.767,0,0,1,.6-3.058,7.648,7.648,0,0,1,1.7-2.508,7.881,7.881,0,0,1,2.662-1.694,9.4,9.4,0,0,1,3.476-.616,10.735,10.735,0,0,1,3.278.484,7.456,7.456,0,0,1,2.64,1.452,6.753,6.753,0,0,1,1.771,2.453A8.592,8.592,0,0,1,45.672-7.5a7.585,7.585,0,0,1-.627,3.08,7.73,7.73,0,0,1-1.738,2.5A7.861,7.861,0,0,1,40.656-.264,9.34,9.34,0,0,1,37.268.33,12.046,12.046,0,0,1,34-.1a7,7,0,0,1-2.662-1.386,6.7,6.7,0,0,1-1.793-2.442A8.706,8.706,0,0,1,28.886-7.48ZM55.33-4.136a3.315,3.315,0,0,0-.693-2.3,2.589,2.589,0,0,0-2.013-.759q-.308,0-.528.011t-.418.011q0,.462-.011.957t-.011,1.177q0,.528.011,1.078t.011,1.078q0,.528.011.968t.011.726q.308.022.572.033t.638.011a2.227,2.227,0,0,0,.924-.2,2.191,2.191,0,0,0,.77-.583,2.961,2.961,0,0,0,.528-.935A3.761,3.761,0,0,0,55.33-4.136Zm-.154-7.106a4.025,4.025,0,0,0-.121-1,2.029,2.029,0,0,0-.407-.814,2.116,2.116,0,0,0-.726-.55,2.559,2.559,0,0,0-1.1-.209q-.484,0-.671.011a2.979,2.979,0,0,0-.407.055q-.044.814-.066,1.65t-.022,1.408q0,.594.011,1.133t.011,1.111h.99a2.493,2.493,0,0,0,.913-.176,2.4,2.4,0,0,0,.8-.517,2.563,2.563,0,0,0,.572-.869A3.186,3.186,0,0,0,55.176-11.242ZM48.4-8.976q0-1.826-.044-3.245t-.132-2.849q.374.044.814.077t.99.033q.946,0,1.98-.055t1.98-.055a7.637,7.637,0,0,1,1.8.2,4.239,4.239,0,0,1,1.408.6,2.706,2.706,0,0,1,.913,1.056,3.484,3.484,0,0,1,.319,1.551,3.055,3.055,0,0,1-.374,1.551,3.754,3.754,0,0,1-.913,1.078,4.419,4.419,0,0,1-1.166.671,6.093,6.093,0,0,1-1.133.33v.044a4.866,4.866,0,0,1,1.188.231,4.488,4.488,0,0,1,1.3.649,3.882,3.882,0,0,1,1.045,1.133,3.137,3.137,0,0,1,.429,1.683,4.39,4.39,0,0,1-.429,2.024A3.851,3.851,0,0,1,57.233-.9a4.333,4.333,0,0,1-1.639.737A8.65,8.65,0,0,1,53.68.044q-.88,0-1.639-.022T50.446,0H49.225a8.98,8.98,0,0,0-1,.044q.088-1.364.132-2.783T48.4-5.984Zm17.248-1.958q-.572,1.32-1.078,2.607T63.58-5.7h4.026q-.484-1.342-.957-2.629T65.648-10.934ZM73.436.044Q72.908,0,72.435,0h-1.87q-.473,0-.935.044-.352-1.078-.726-2.2T68.112-4.4q-.7-.022-1.408-.033T65.3-4.444q-.572,0-1.144.011T63.008-4.4q-.44,1.122-.814,2.244t-.682,2.2A3.142,3.142,0,0,0,60.995,0H59.95a4.062,4.062,0,0,0-.572.044q.264-.572.7-1.584t.968-2.288l1.133-2.739q.6-1.463,1.21-2.959t1.188-2.948q.583-1.452,1.067-2.706.22.044.418.077a2.541,2.541,0,0,0,.418.033A2.541,2.541,0,0,0,66.9-15.1q.2-.033.418-.077l1.507,4q.8,2.134,1.617,4.191t1.584,3.9Q72.8-1.232,73.436.044ZM75.7-8.976q0-1.826-.044-3.245t-.132-2.849q.374.044.814.077t.99.033q.55,0,.99-.033t.814-.077q-.088,1.43-.132,2.849t-.044,3.245v2.992q0,1.254.011,2.42T79-1.54q1.254,0,2.508-.066t2.53-.22q-.044.242-.066.44a5.282,5.282,0,0,0-.022.55,5.282,5.282,0,0,0,.022.55,1.631,1.631,0,0,0,.066.33Q83.446.022,82.577.011T80.19,0H76.7q-.5,0-.748.011t-.429.033q.088-1.364.132-2.783T75.7-5.984Z" transform="translate(462 392)"/><path class="c" d="M11.85-14.91a6.608,6.608,0,0,0-.27-2.1,2.376,2.376,0,0,0-.825-1.185,3.118,3.118,0,0,0-1.44-.525A16.017,16.017,0,0,0,7.2-18.84q-.09,4.08-.09,8.16.18.03.345.045t.315.015a4.068,4.068,0,0,0,3.03-1.065A4.423,4.423,0,0,0,11.85-14.91ZM7.11-9.39v1.23q0,2.49.06,4.425T7.35.06A9.533,9.533,0,0,0,6.24,0H3.54A9.533,9.533,0,0,0,2.43.06q.12-1.86.18-3.795T2.67-8.16v-4.08q0-2.49-.06-4.425T2.43-20.55q.51.06,1.11.1t1.35.045q.81,0,1.845-.075T9.3-20.55q1.14,0,1.95.06a11.148,11.148,0,0,1,1.395.18,4.914,4.914,0,0,1,1.02.315,5.14,5.14,0,0,1,.825.465,4.864,4.864,0,0,1,1.425,1.635,4.838,4.838,0,0,1,.525,2.325A5.244,5.244,0,0,1,15.24-12a6.554,6.554,0,0,1-3.45,1.95q1.44,2.55,3.09,5.085T18.18.06Q17.49,0,16.83,0H14.115Q13.44,0,12.75.06L7.38-9.39ZM27.3-14.91q-.78,1.8-1.47,3.555T24.48-7.77h5.49q-.66-1.83-1.305-3.585T27.3-14.91ZM37.92.06Q37.2,0,36.555,0H34Q33.36,0,32.73.06q-.48-1.47-.99-3T30.66-6q-.96-.03-1.92-.045T26.82-6.06q-.78,0-1.56.015T23.7-6q-.6,1.53-1.11,3.06t-.93,3a4.284,4.284,0,0,0-.7-.06H19.53a5.539,5.539,0,0,0-.78.06q.36-.78.96-2.16t1.32-3.12l1.545-3.735q.825-2,1.65-4.035t1.62-4.02q.8-1.98,1.455-3.69.3.06.57.1a3.466,3.466,0,0,0,.57.045,3.466,3.466,0,0,0,.57-.045q.27-.045.57-.1l2.055,5.46q1.095,2.91,2.2,5.715T36-4.2Q37.05-1.68,37.92.06Zm3.36-14.64q0-2.07-.06-3.48t-.09-2.49a8.073,8.073,0,0,0,1.35.15,8.073,8.073,0,0,0,1.35-.15q3.27,3.63,6.465,7.14T56.85-6.27v-5.52q0-1.47-.015-2.895t-.03-2.625q-.015-1.2-.06-2.07a9.872,9.872,0,0,0-.105-1.17,8.073,8.073,0,0,0,1.35.15,8.073,8.073,0,0,0,1.35-.15q-.15,2.73-.24,4.935t-.15,4.155q-.06,1.95-.075,3.855T58.86-3.54V.06Q58.26,0,57.63,0a10.12,10.12,0,0,0-1.17.06q-6.18-7.2-13.11-14.49-.03.87-.045,1.74t-.015,1.77v3.48q0,1.8.015,3.06t.045,2.13q.03.87.06,1.425t.06.885A4.373,4.373,0,0,0,42.75,0h-.69q-.69,0-1.38.06a16.57,16.57,0,0,0,.15-1.71q.09-1.47.195-3.585t.18-4.59Q41.28-12.3,41.28-14.58Zm40.2-1.5a7.463,7.463,0,0,0-2.4-2.175,6.958,6.958,0,0,0-3.51-.825,6.916,6.916,0,0,0-2.745.585,6.992,6.992,0,0,0-2.43,1.755,8.989,8.989,0,0,0-1.725,2.925,11.7,11.7,0,0,0-.66,4.125A10.764,10.764,0,0,0,68.5-6.36,7.965,7.965,0,0,0,69.93-3.7,6.464,6.464,0,0,0,72.21-1.95a7.228,7.228,0,0,0,3.09.63q.39,0,.885-.045t.96-.1A6.491,6.491,0,0,0,78-1.635a2.025,2.025,0,0,0,.57-.225,6.764,6.764,0,0,0,.075-.9q.015-.54.015-1.2,0-2.43-.09-3.585T78.45-9.12a7.85,7.85,0,0,0,.8.1q.495.045,1.425.045,1.08,0,1.605-.045a7.853,7.853,0,0,0,.825-.1,5.451,5.451,0,0,0-.1.78q-.045.54-.075,1.245t-.045,1.5q-.015.8-.015,1.515v.99q0,.75.015,1.395a5.367,5.367,0,0,0,.075.915,34.555,34.555,0,0,1-4,.9,24.869,24.869,0,0,1-4,.33,15.977,15.977,0,0,1-4.755-.675,10.836,10.836,0,0,1-3.75-1.98,9.225,9.225,0,0,1-2.46-3.15A9.487,9.487,0,0,1,63.09-9.51a12.3,12.3,0,0,1,.945-4.995,9.841,9.841,0,0,1,2.61-3.57A11.15,11.15,0,0,1,70.59-20.22a16.255,16.255,0,0,1,4.92-.72,14.775,14.775,0,0,1,3.945.465A16.077,16.077,0,0,1,82.74-19.14q-.24.78-.465,1.53a15.522,15.522,0,0,0-.375,1.53Zm5.94,3.84q0-2.49-.06-4.425t-.18-3.885q1.35.03,2.67.09t2.67.06q2.22,0,3.945-.045t2.325-.1a5.365,5.365,0,0,0-.12,1.26,7.206,7.206,0,0,0,.03.75q.03.27.09.6-.87-.06-1.9-.12t-2.01-.12q-.975-.06-1.755-.09t-1.11-.03q-.12,1.65-.135,3.27t-.015,3.27q1.95-.03,3.525-.09T98.67-12q-.09.51-.12.78a5.167,5.167,0,0,0-.03.57,2.847,2.847,0,0,0,.045.495q.045.255.105.735-3.42-.27-6.81-.27,0,.96-.015,1.92T91.83-5.85q0,1.95.09,3.75,1.71,0,3.42-.09t3.45-.3q-.06.33-.09.6a7.206,7.206,0,0,0-.03.75,7.206,7.206,0,0,0,.03.75,2.225,2.225,0,0,0,.09.45Q97.98.03,96.795.015T93.54,0H88.785q-.675,0-1.02.015T87.18.06q.12-1.86.18-3.795t.06-4.425Zm15.27,0q0-2.49-.06-4.425t-.18-3.885q.51.06,1.11.1t1.35.045q.75,0,1.35-.045t1.11-.1q-.12,1.95-.18,3.885t-.06,4.425v4.08q0,1.71.015,3.3t.045,2.76q1.71,0,3.42-.09t3.45-.3q-.06.33-.09.6a7.206,7.206,0,0,0-.03.75,7.206,7.206,0,0,0,.03.75,2.225,2.225,0,0,0,.09.45q-.81-.03-2-.045T108.81,0h-4.755q-.675,0-1.02.015T102.45.06q.12-1.86.18-3.795t.06-4.425Zm21.3-2.67q-.78,1.8-1.47,3.555T121.17-7.77h5.49q-.66-1.83-1.305-3.585T123.99-14.91ZM134.61.06Q133.89,0,133.245,0h-2.55q-.645,0-1.275.06-.48-1.47-.99-3T127.35-6q-.96-.03-1.92-.045t-1.92-.015q-.78,0-1.56.015T120.39-6q-.6,1.53-1.11,3.06t-.93,3a4.284,4.284,0,0,0-.705-.06H116.22a5.539,5.539,0,0,0-.78.06q.36-.78.96-2.16t1.32-3.12l1.545-3.735q.825-2,1.65-4.035t1.62-4.02q.795-1.98,1.455-3.69.3.06.57.1a3.466,3.466,0,0,0,.57.045,3.466,3.466,0,0,0,.57-.045q.27-.045.57-.1l2.055,5.46q1.095,2.91,2.205,5.715T132.69-4.2Q133.74-1.68,134.61.06Zm3.36-14.64q0-2.07-.06-3.48t-.09-2.49a8.073,8.073,0,0,0,1.35.15,8.073,8.073,0,0,0,1.35-.15q3.27,3.63,6.465,7.14t6.555,7.14v-5.52q0-1.47-.015-2.895t-.03-2.625q-.015-1.2-.06-2.07a9.874,9.874,0,0,0-.1-1.17,8.072,8.072,0,0,0,1.35.15,8.072,8.072,0,0,0,1.35-.15q-.15,2.73-.24,4.935t-.15,4.155q-.06,1.95-.075,3.855T155.55-3.54V.06q-.6-.06-1.23-.06a10.12,10.12,0,0,0-1.17.06q-6.18-7.2-13.11-14.49-.03.87-.045,1.74t-.015,1.77v3.48q0,1.8.015,3.06t.045,2.13q.03.87.06,1.425t.06.885a4.373,4.373,0,0,0-.72-.06h-.69q-.69,0-1.38.06a16.575,16.575,0,0,0,.15-1.71q.09-1.47.195-3.585t.18-4.59Q137.97-12.3,137.97-14.58Zm27.51,8.61v1.8q0,.87.015,1.59t.015.93q.45.03,1.08.06t1.56.03a6.706,6.706,0,0,0,5.37-2.31q1.98-2.31,1.98-6.99a10.407,10.407,0,0,0-.5-3.33,7.333,7.333,0,0,0-1.395-2.505,6.07,6.07,0,0,0-2.16-1.59,6.923,6.923,0,0,0-2.82-.555q-1.08,0-1.755.045t-1.365.1q0,.21-.015.93t-.015,1.62V-5.97Zm-4.44-6.27q0-2.49-.06-4.425t-.18-3.885q.51.06,1.11.1t1.35.045q.99,0,2.22-.075t3.21-.075a21.905,21.905,0,0,1,4.695.465,9.657,9.657,0,0,1,3.645,1.575,7.272,7.272,0,0,1,2.37,2.985,11.586,11.586,0,0,1,.84,4.725,11.752,11.752,0,0,1-.825,4.5,10.35,10.35,0,0,1-2.25,3.435,9.729,9.729,0,0,1-3.3,2.175,10.683,10.683,0,0,1-4,.75q-2.25,0-3.84-.03T163.26,0h-1.35a9.533,9.533,0,0,0-1.11.06q.12-1.86.18-3.795t.06-4.425Zm32.19-4.26a3.592,3.592,0,0,0-3.63-2.58,3.17,3.17,0,0,0-2.25.81,2.508,2.508,0,0,0-.87,1.89,2.517,2.517,0,0,0,.675,1.815,7.159,7.159,0,0,0,1.695,1.275q1.02.57,2.19,1.095a11.453,11.453,0,0,1,2.19,1.29,6.694,6.694,0,0,1,1.695,1.86,5.272,5.272,0,0,1,.675,2.8,6.516,6.516,0,0,1-.57,2.745,6.043,6.043,0,0,1-1.62,2.13A7.271,7.271,0,0,1,190.9-.015,10.663,10.663,0,0,1,187.65.45a11.1,11.1,0,0,1-2.9-.345A5.576,5.576,0,0,1,182.82-.75q.3-1.05.51-1.92t.36-1.89h.57a3.957,3.957,0,0,0,.45,1.245,3.98,3.98,0,0,0,.84,1.035,3.7,3.7,0,0,0,1.23.705,4.831,4.831,0,0,0,1.62.255,3.508,3.508,0,0,0,2.655-.9,3.025,3.025,0,0,0,.855-2.16,2.645,2.645,0,0,0-.66-1.86,6.573,6.573,0,0,0-1.65-1.275q-.99-.555-2.16-1.08a11.062,11.062,0,0,1-2.16-1.275,6.5,6.5,0,0,1-1.65-1.845,5.367,5.367,0,0,1-.66-2.8,6.508,6.508,0,0,1,.555-2.76,5.919,5.919,0,0,1,1.485-2.01,6.427,6.427,0,0,1,2.145-1.23,7.8,7.8,0,0,1,2.565-.42,9.3,9.3,0,0,1,2.835.39,6.531,6.531,0,0,1,2.085,1.08q-.27.69-.465,1.335L193.68-16.5Z" transform="translate(349 369)"/><path class="b" d="M2.046-8.976q0-1.826-.044-3.245T1.87-15.07q.374.044.814.077t.99.033q.55,0,.99-.033t.814-.077q-.088,1.43-.132,2.849T5.3-8.976v2.992q0,1.826.044,3.245T5.478.044A6.991,6.991,0,0,0,4.664,0H2.684A6.991,6.991,0,0,0,1.87.044Q1.958-1.32,2-2.739t.044-3.245Zm7.436-1.716q0-1.518-.044-2.552T9.372-15.07a5.92,5.92,0,0,0,.99.11,5.92,5.92,0,0,0,.99-.11q2.4,2.662,4.741,5.236T20.9-4.6V-8.646q0-1.078-.011-2.123t-.022-1.925q-.011-.88-.044-1.518a7.24,7.24,0,0,0-.077-.858,5.92,5.92,0,0,0,.99.11,5.92,5.92,0,0,0,.99-.11q-.11,2-.176,3.619T22.44-8.4q-.044,1.43-.055,2.827T22.374-2.6V.044Q21.934,0,21.472,0a7.421,7.421,0,0,0-.858.044Q16.082-5.236,11-10.582q-.022.638-.033,1.276t-.011,1.3v2.552q0,1.32.011,2.244T11-1.65q.022.638.044,1.045t.044.649A3.206,3.206,0,0,0,10.56,0h-.506Q9.548,0,9.042.044a12.151,12.151,0,0,0,.11-1.254q.066-1.078.143-2.629T9.427-7.2Q9.482-9.02,9.482-10.692ZM26.488-8.976q0-1.826-.044-3.245t-.132-2.849q.374.044.814.077t.99.033q.55,0,.99-.033t.814-.077q-.088,1.43-.132,2.849t-.044,3.245v2.992q0,1.826.044,3.245T29.92.044A6.991,6.991,0,0,0,29.106,0h-1.98a6.991,6.991,0,0,0-.814.044q.088-1.364.132-2.783t.044-3.245Zm9.834-2.508q0-.638-.011-1.166a5.411,5.411,0,0,0-.055-.77q-.33,0-.814.022t-1.034.055q-.55.033-1.122.088t-1.056.121q.044-.242.077-.484a3.578,3.578,0,0,0,.033-.484,3.578,3.578,0,0,0-.033-.484q-.033-.242-.077-.484.748.022,1.353.044t1.232.033l1.364.022q.737.011,1.771.011t1.771-.011l1.353-.022q.616-.011,1.2-.033t1.265-.044q-.044.242-.077.484a3.578,3.578,0,0,0-.033.484,3.578,3.578,0,0,0,.033.484q.033.242.077.484-.44-.066-.99-.121t-1.089-.088q-.539-.033-1.023-.055t-.814-.022a2.318,2.318,0,0,0-.033.308q-.011.2-.011.462v6.666q0,1.826.044,3.245T39.754.044A6.991,6.991,0,0,0,38.94,0H36.96a6.991,6.991,0,0,0-.814.044q.088-1.364.132-2.783t.044-3.245Zm9.724,2.508q0-1.826-.044-3.245T45.87-15.07q.374.044.814.077t.99.033q.55,0,.99-.033t.814-.077q-.088,1.43-.132,2.849T49.3-8.976v2.992q0,1.826.044,3.245T49.478.044A6.991,6.991,0,0,0,48.664,0h-1.98a6.991,6.991,0,0,0-.814.044Q45.958-1.32,46-2.739t.044-3.245ZM57.9-10.934q-.572,1.32-1.078,2.607T55.836-5.7h4.026Q59.378-7.04,58.9-8.327T57.9-10.934ZM65.692.044Q65.164,0,64.691,0h-1.87q-.473,0-.935.044-.352-1.078-.726-2.2T60.368-4.4q-.7-.022-1.408-.033t-1.408-.011q-.572,0-1.144.011T55.264-4.4q-.44,1.122-.814,2.244t-.682,2.2A3.142,3.142,0,0,0,53.251,0H52.206a4.062,4.062,0,0,0-.572.044q.264-.572.7-1.584t.968-2.288l1.133-2.739q.6-1.463,1.21-2.959t1.188-2.948q.583-1.452,1.067-2.706.22.044.418.077a2.541,2.541,0,0,0,.418.033,2.541,2.541,0,0,0,.418-.033q.2-.033.418-.077l1.507,4q.8,2.134,1.617,4.191t1.584,3.9Q65.054-1.232,65.692.044Zm3.234-11.528q0-.638-.011-1.166a5.41,5.41,0,0,0-.055-.77q-.33,0-.814.022t-1.034.055q-.55.033-1.122.088t-1.056.121q.044-.242.077-.484a3.579,3.579,0,0,0,.033-.484,3.579,3.579,0,0,0-.033-.484q-.033-.242-.077-.484.748.022,1.353.044t1.232.033l1.364.022q.737.011,1.771.011t1.771-.011l1.353-.022q.616-.011,1.2-.033t1.265-.044q-.044.242-.077.484a3.578,3.578,0,0,0-.033.484,3.578,3.578,0,0,0,.033.484q.033.242.077.484-.44-.066-.99-.121t-1.089-.088q-.539-.033-1.023-.055t-.814-.022a2.319,2.319,0,0,0-.033.308q-.011.2-.011.462v6.666q0,1.826.044,3.245T72.358.044A6.991,6.991,0,0,0,71.544,0h-1.98a6.991,6.991,0,0,0-.814.044q.088-1.364.132-2.783t.044-3.245ZM78.65-8.976q0-1.826-.044-3.245t-.132-2.849q.374.044.814.077t.99.033q.55,0,.99-.033t.814-.077q-.088,1.43-.132,2.849t-.044,3.245v2.992q0,1.826.044,3.245T82.082.044A6.991,6.991,0,0,0,81.268,0h-1.98a6.991,6.991,0,0,0-.814.044q.088-1.364.132-2.783t.044-3.245Zm13.574,4.95q1.144-2.794,2.222-5.621t1.936-5.423a5.012,5.012,0,0,0,.968.11,5.012,5.012,0,0,0,.968-.11q-.55,1.3-1.32,3.124T95.392-8.074q-.836,2.046-1.65,4.158T92.29.044Q91.85,0,91.322,0t-.968.044q-.33-.88-.8-2.134T88.539-4.752Q88-6.16,87.406-7.634t-1.144-2.849q-.55-1.375-1.034-2.563t-.836-2.024q.506.044,1,.077t.979.033q.484,0,.968-.033t.968-.077q.374,1.232.847,2.6t.979,2.783q.506,1.419,1.045,2.849T92.224-4.026Zm8.14-4.95q0-1.826-.044-3.245t-.132-2.849q.99.022,1.958.066t1.958.044q1.628,0,2.893-.033t1.705-.077a3.935,3.935,0,0,0-.088.924,5.285,5.285,0,0,0,.022.55q.022.2.066.44-.638-.044-1.4-.088l-1.474-.088q-.715-.044-1.287-.066t-.814-.022q-.088,1.21-.1,2.4t-.011,2.4q1.43-.022,2.585-.066t2.409-.11q-.066.374-.088.572a3.789,3.789,0,0,0-.022.418,2.088,2.088,0,0,0,.033.363q.033.187.077.539-2.508-.2-4.994-.2,0,.7-.011,1.408T103.6-4.29q0,1.43.066,2.75,1.254,0,2.508-.066t2.53-.22q-.044.242-.066.44a5.285,5.285,0,0,0-.022.55,5.285,5.285,0,0,0,.022.55,1.632,1.632,0,0,0,.066.33q-.594-.022-1.463-.033T104.852,0h-3.487q-.5,0-.748.011t-.429.033q.088-1.364.132-2.783t.044-3.245Z" transform="translate(349 392)"/><g transform="translate(102.697 332.637)"><g transform="translate(1.303 -0.637)"><path d="M1.3,12.854V-.063H4.811V12.854Z" transform="translate(-1.303 0.267)"/><path d="M31.357,12.854H26.78l-4.718-9.1h-.079q.168,2.147.168,3.278v5.822H19.058V-.063h4.559l4.7,8.977h.053q-.124-1.953-.124-3.137V-.063h3.11V12.854Z" transform="translate(-12.759 0.267)"/><path d="M65.572,12.853h-3.49V2.79H58.928V-.064h9.79V2.79H65.572V12.853Z" transform="translate(-38.483 0.267)"/><path d="M99.393,12.854H91.724V-.063h7.669v2.8H95.214V4.77h3.87v2.8h-3.87v2.439h4.179Z" transform="translate(-59.643 0.267)"/><path d="M123.2,8.154v4.7h-3.49V-.063h4.232q5.266,0,5.266,3.817a3.814,3.814,0,0,1-2.191,3.472l3.764,5.628h-3.958l-2.739-4.7Zm0-2.624h.654q1.829,0,1.829-1.617,0-1.334-1.793-1.334H123.2V5.529Z" transform="translate(-77.702 0.267)"/><path d="M166.528,12.854h-4.577l-4.718-9.1h-.079q.168,2.147.168,3.278v5.822h-3.092V-.063h4.559l4.7,8.977h.053q-.124-1.953-.124-3.137V-.063h3.11Z" transform="translate(-99.971 0.267)"/><path d="M202.148,12.757l-.636-2.421h-4.2l-.654,2.421h-3.835L197.04-.213H201.7l4.267,12.97Zm-1.36-5.284-.557-2.121q-.194-.707-.473-1.829t-.367-1.608q-.079.45-.314,1.484t-1.038,4.073Z" transform="translate(-124.874 0.363)"/><path d="M237.77,12.853h-3.49V2.79h-3.155V-.064h9.79V2.79H237.77V12.853Z" transform="translate(-149.585 0.267)"/><path d="M263.923,12.854V-.063h3.507V12.854Z" transform="translate(-170.746 0.267)"/><path d="M292.9,6.007a6.969,6.969,0,0,1-1.6,4.957,7.266,7.266,0,0,1-9.343-.009,6.937,6.937,0,0,1-1.621-4.965,6.9,6.9,0,0,1,1.613-4.926,7.312,7.312,0,0,1,9.361-.013A6.973,6.973,0,0,1,292.9,6.007Zm-8.889,0q0,3.747,2.606,3.746a2.24,2.24,0,0,0,1.966-.91,4.98,4.98,0,0,0,.641-2.836,5.023,5.023,0,0,0-.649-2.858,2.217,2.217,0,0,0-1.94-.924Q284.009,2.226,284.009,6.007Z" transform="translate(-181.335 0.637)"/><path d="M334.619,12.854h-4.577l-4.718-9.1h-.08q.167,2.147.168,3.278v5.822H322.32V-.063h4.559l4.7,8.977h.052q-.123-1.953-.123-3.137V-.063h3.11Z" transform="translate(-208.424 0.267)"/><path d="M370.238,12.757l-.636-2.421h-4.2l-.654,2.421h-3.835l4.215-12.97h4.656l4.267,12.97Zm-1.36-5.284-.556-2.121q-.194-.707-.473-1.829t-.367-1.608q-.079.45-.313,1.484T366.13,7.474Z" transform="translate(-233.327 0.363)"/><path d="M401.882,12.854V-.063h3.49v10.1h4.974v2.818h-8.464Z" transform="translate(-259.758 0.267)"/></g><g transform="translate(1.321 16.417)"><path d="M1.354,86.886v-39H11.892V78.375h15.02v8.511Z" transform="translate(-1.354 -47.721)"/><path d="M107.253,86.595l-1.921-7.31H92.659l-1.974,7.31H79.106L91.832,47.43h14.06L118.778,86.6H107.253Zm-4.109-15.954-1.681-6.4q-.587-2.134-1.427-5.522T98.929,53.86q-.24,1.361-.947,4.482t-3.135,12.3Z" transform="translate(-51.52 -47.43)"/><path d="M239.94,86.886H226.12L211.874,59.406h-.24q.506,6.483.507,9.9V86.886H202.8v-39h13.766l14.193,27.106h.16q-.373-5.9-.374-9.471V47.881h9.391v39Z" transform="translate(-131.329 -47.721)"/><path d="M364.345,66.556q0,9.765-5.376,15.047t-15.114,5.283H331.236v-39h13.5q9.391,0,14.5,4.8T364.345,66.556Zm-10.938.373q0-5.362-2.121-7.95t-6.443-2.588h-3.068v21.85h2.348q4.8,0,7.043-2.788T353.406,66.93Z" transform="translate(-214.195 -47.721)"/></g><g transform="translate(1.463 59.204)"><path d="M11.037,172.365a3.317,3.317,0,0,0-2.9,1.521,7.342,7.342,0,0,0-1.04,4.193q0,5.556,4.226,5.556a8.659,8.659,0,0,0,2.475-.356,24.788,24.788,0,0,0,2.409-.856v4.4a13.333,13.333,0,0,1-5.451,1.066,8.622,8.622,0,0,1-6.682-2.528q-2.324-2.528-2.324-7.307A11.662,11.662,0,0,1,2.881,172.8a8.055,8.055,0,0,1,3.239-3.482,9.783,9.783,0,0,1,4.97-1.218,13.694,13.694,0,0,1,5.965,1.356l-1.593,4.095a18.023,18.023,0,0,0-2.133-.843A7.473,7.473,0,0,0,11.037,172.365Z" transform="translate(-1.755 -168.073)"/><path d="M69.795,177.927q0,4.858-2.383,7.386t-6.978,2.528q-4.53,0-6.945-2.541t-2.416-7.4q0-4.805,2.4-7.34t6.985-2.535q4.595,0,6.965,2.515T69.795,177.927Zm-13.245,0q0,5.583,3.884,5.582a3.339,3.339,0,0,0,2.93-1.356,9.845,9.845,0,0,0-.013-8.486,3.3,3.3,0,0,0-2.89-1.376Q56.55,172.292,56.549,177.927Z" transform="translate(-33.574 -168.026)"/><path d="M121.666,187.984l-.948-3.608h-6.254l-.974,3.608h-5.714l6.28-19.328H121l6.359,19.328Zm-2.028-7.874-.83-3.16q-.289-1.053-.7-2.726t-.546-2.4q-.119.672-.467,2.212t-1.547,6.07h4.094Z" transform="translate(-70.16 -168.432)"/><path d="M168.821,188.128V168.879h5.2v15.049h7.413v4.2Z" transform="translate(-109.546 -168.576)"/><path d="M213.056,188.128V168.879h5.227v19.249Z" transform="translate(-138.087 -168.576)"/><path d="M245.446,188.128h-5.2v-15h-4.7v-4.253h14.588v4.253h-4.687Z" transform="translate(-152.597 -168.576)"/><path d="M284.417,188.128V168.879h5.227v19.249Z" transform="translate(-184.129 -168.576)"/><path d="M327.595,177.927q0,4.858-2.383,7.386t-6.978,2.528q-4.53,0-6.945-2.541t-2.416-7.4q0-4.805,2.4-7.34t6.985-2.535q4.594,0,6.965,2.515T327.595,177.927Zm-13.245,0q0,5.583,3.884,5.582a3.338,3.338,0,0,0,2.929-1.356,9.842,9.842,0,0,0-.013-8.486,3.3,3.3,0,0,0-2.89-1.376Q314.35,172.292,314.349,177.927Z" transform="translate(-199.908 -168.026)"/><path d="M389.766,188.128h-6.82l-7.031-13.561H375.8q.25,3.2.25,4.885v8.677h-4.608V168.879h6.794l7,13.377h.079q-.185-2.91-.184-4.674v-8.7h4.634v19.249Z" transform="translate(-240.276 -168.576)"/></g></g></svg>