<?xml version="1.0" encoding="UTF-8"?>
<svg width="74px" height="74px" viewBox="0 0 74 74" version="1.1" xmlns="http://www.w3.org/2000/svg" xmlns:xlink="http://www.w3.org/1999/xlink">
    <!-- Generator: Sketch 47.1 (45422) - http://www.bohemiancoding.com/sketch -->
    <title>Untitled</title>
    <desc>Created with Sketch.</desc>
    <defs></defs>
    <g id="Page-1" stroke="none" stroke-width="1" fill="none" fill-rule="evenodd">
        <g id="twitter" fill-rule="nonzero">
            <circle id="Oval" fill="#55ACEE" cx="37" cy="37" r="37"></circle>
            <path d="M60.626506,26.4055188 C59.0196187,27.1033627 57.2910786,27.5753565 55.4783172,27.7861499 C57.3291786,26.7001058 58.7495761,24.9816817 59.4200037,22.9307016 C57.6881214,23.9368799 55.7690809,24.666801 53.7283875,25.0602382 C52.0934265,23.3549069 49.7639747,22.2891566 47.1845329,22.2891566 C42.2355339,22.2891566 38.2216578,26.2202563 38.2216578,31.0671943 C38.2216578,31.7552186 38.3012,32.424913 38.4549372,33.0677673 C31.0060387,32.7018248 24.4013576,29.2073684 19.9804122,23.894983 C19.2090529,25.1911658 18.7665573,26.7001058 18.7665573,28.3085508 C18.7665573,31.353271 20.3500498,34.0412136 22.7536965,35.6149628 C21.2851726,35.5697928 19.9022068,35.1750462 18.6943677,34.515826 C18.6936992,34.5531403 18.6936992,34.5904547 18.6936992,34.6271144 C18.6936992,38.8802959 21.7844841,42.4277779 25.8839183,43.2336369 C25.1326116,43.4352654 24.3391943,43.5419713 23.5230506,43.5419713 C22.9441969,43.5419713 22.3833905,43.4876364 21.8366211,43.3855129 C22.9769496,46.8721136 26.2863086,49.4101442 30.2092792,49.4814997 C27.1412207,51.8362317 23.2770712,53.2391204 19.0767052,53.2391204 C18.3548091,53.2391204 17.6395972,53.1978782 16.939759,53.1160485 C20.9041719,55.6075998 25.6165494,57.060241 30.6778433,57.060241 C47.1638118,57.060241 56.1794922,43.6846824 56.1794922,32.0838467 C56.1794922,31.7035022 56.1708027,31.3244669 56.1534238,30.9487048 C57.9060271,29.7114395 59.4253511,28.1658397 60.626506,26.4055188 L60.626506,26.4055188 Z" id="Shape" fill="#F1F2F2"></path>
        </g>
    </g>
</svg>