<?xml version="1.0" encoding="UTF-8"?>
<svg width="74px" height="74px" viewBox="0 0 74 74" version="1.1" xmlns="http://www.w3.org/2000/svg" xmlns:xlink="http://www.w3.org/1999/xlink">
    <!-- Generator: Sketch 47.1 (45422) - http://www.bohemiancoding.com/sketch -->
    <title>Untitled 2</title>
    <desc>Created with Sketch.</desc>
    <defs></defs>
    <g id="Page-1" stroke="none" stroke-width="1" fill="none" fill-rule="evenodd">
        <g id="youtube" fill-rule="nonzero">
            <path d="M36.9135822,0 C57.3015959,0 73.8274178,16.5281027 73.8274178,36.9138356 C73.8274178,57.2995685 57.3015959,73.8274178 36.9135822,73.8274178 C16.5255685,73.8274178 0,57.2993151 0,36.9138356 C0,16.5283562 16.5258219,0 36.9135822,0 Z" id="Shape" fill="#C4302B"></path>
            <path d="M36.0230479,29.9945822 C37.1903219,29.9945822 38.1041712,29.6230616 38.7732123,29.0949247 C39.4376918,28.5642534 39.7699315,27.8422466 39.7699315,26.9147123 L39.7699315,21.3175753 C39.7699315,20.4939452 39.4308493,19.8132466 38.7547123,19.2896712 C38.0740137,18.7658425 37.2042603,18.5053219 36.1383562,18.5053219 C34.973363,18.5053219 34.0412671,18.7521575 33.3514452,19.2481096 C32.6593425,19.7463425 32.3131644,20.4108219 32.3131644,21.2529521 L32.3131644,26.8683356 C32.3131644,27.7910548 32.6499658,28.5201575 33.3235685,29.0670479 C33.9971712,29.6139384 34.8996164,29.9945822 36.0230479,29.9945822 Z M34.8028082,21.5253836 C34.8028082,21.3130137 34.9135548,21.1424589 35.1327671,21.0063699 C35.3542603,20.8748425 35.6403767,20.8102192 35.9911164,20.8102192 C36.3740411,20.8102192 36.6832192,20.8748425 36.9163699,21.0063699 C37.1518014,21.1424589 37.2671096,21.3132671 37.2671096,21.5253836 L37.2671096,26.8455274 C37.2671096,27.1085822 37.1518014,27.316137 36.9209315,27.4661644 C36.6903151,27.613911 36.381137,27.6899384 35.9911164,27.6899384 C35.6104726,27.6899384 35.3152329,27.6184726 35.1097055,27.4684452 C34.9067123,27.3229795 34.8028082,27.1154247 34.8028082,26.8455274 L34.8028082,21.5253836 L34.8028082,21.5253836 Z M43.7474315,29.9877397 C44.1579795,29.9877397 44.5756233,29.7523082 45.0094863,29.5171301 C45.447911,29.277137 45.8653014,28.9263973 46.2669795,28.469726 L46.2669795,29.7132808 L48.4471918,29.7132808 L48.4471918,18.4891027 L46.2669795,18.4891027 L46.2669795,27.0092397 C46.0639863,27.2515137 45.8379315,27.452226 45.5956575,27.6113767 C45.3488219,27.7682466 45.1458288,27.849089 44.9866781,27.849089 C44.7814041,27.849089 44.6313767,27.7913082 44.5436918,27.6691575 C44.4514452,27.5515685 44.4007603,27.3599795 44.4007603,27.0969247 L44.4007603,18.4913836 L42.2251096,18.4913836 L42.2251096,27.8698699 C42.2251096,28.538911 42.356637,29.0396781 42.6080342,29.3719178 C42.8637397,29.7061849 43.2421027,29.9877397 43.7474315,29.9877397 Z M50.0873562,34.6274384 L23.7400616,34.6274384 C19.5504452,34.6274384 16.1565822,37.8920548 16.1565822,41.9133973 L16.1565822,48.0733904 C16.1565822,52.0970137 19.5504452,55.3616301 23.7400616,55.3616301 L50.0871027,55.3616301 C54.2744384,55.3616301 57.6705822,52.0970137 57.6705822,48.0733904 L57.6705822,41.9133973 C57.6708356,37.8918014 54.2746918,34.6274384 50.0873562,34.6274384 Z M27.6597808,40.8796781 L25.3297945,40.8796781 L25.3297945,50.5280616 L23.0758356,50.5280616 L23.0758356,40.8796781 L20.7455959,40.8796781 L20.7455959,39.2346986 L27.6600342,39.2346986 C27.6597808,39.2346986 27.6597808,40.8796781 27.6597808,40.8796781 Z M34.6135,50.6618699 L32.1841712,50.6618699 L32.1841712,49.660589 C31.7320616,50.0298288 31.2682945,50.313411 30.7791849,50.5027192 C30.2969178,50.7011507 29.8263082,50.7956781 29.369637,50.7956781 C28.8067808,50.7956781 28.3868562,50.659589 28.1007397,50.3851301 C27.8191849,50.1152329 27.6739726,49.7092466 27.6739726,49.1669178 L27.6739726,41.5489726 L30.1033014,41.5489726 L30.1033014,48.5371575 C30.1033014,48.754089 30.1539863,48.9063973 30.2510479,49.0032055 C30.3572329,49.1022945 30.5255068,49.146137 30.7518151,49.146137 C30.9271849,49.146137 31.1578014,49.0837945 31.4299795,48.9545479 C31.7044384,48.8275822 31.956089,48.6661507 32.1844247,48.4654384 L32.1844247,41.5464384 L34.6137534,41.5464384 C34.6135,41.5464384 34.6135,50.6618699 34.6135,50.6618699 Z M43.8095205,48.9269247 C43.8095205,49.5245 43.6202123,49.9788904 43.2443836,50.299726 C42.872863,50.6203082 42.3239452,50.7771781 41.6156233,50.7771781 C41.1427329,50.7771781 40.7228082,50.7171164 40.3581301,50.5949658 C39.9914247,50.4728151 39.6452466,50.2835068 39.3315068,50.0227329 L39.3315068,50.6687123 L36.9067397,50.6687123 L36.9067397,39.2346986 L39.3315068,39.2346986 L39.3315068,42.9192397 C39.6591849,42.6655616 40.0028288,42.4671301 40.360411,42.3333219 C40.7271164,42.1972329 41.0963562,42.1326096 41.4678767,42.1326096 C42.2268836,42.1326096 42.8059589,42.3102603 43.2051027,42.6678425 C43.6088082,43.0277055 43.8095205,43.5560959 43.8095205,44.2459178 C43.8095205,44.2456644 43.8095205,48.9269247 43.8095205,48.9269247 Z M53.0519178,46.354411 L48.5761849,46.354411 L48.5761849,48.0016712 C48.5761849,48.4608767 48.6499315,48.7791781 48.8045205,48.9591096 C48.9613904,49.1367603 49.226726,49.2244452 49.5982466,49.2244452 C49.9905479,49.2244452 50.2581644,49.1484178 50.4150342,48.9983904 C50.5673425,48.8460822 50.6504658,48.5161233 50.6504658,47.9993904 L50.6504658,47.6025274 L53.0567329,47.6025274 L53.0567329,48.0500753 C53.0567329,48.9451712 52.7683356,49.6190274 52.1730411,50.0734178 C51.5871233,50.5255274 50.710274,50.7515822 49.5452808,50.7515822 C48.4955959,50.7515822 47.6696849,50.511589 47.0675479,50.0318562 C46.4676918,49.5566849 46.1630753,48.8922055 46.1630753,48.0523562 L46.1630753,44.1255411 C46.1630753,43.3710959 46.4953151,42.7481781 47.1597945,42.270726 C47.8219932,41.7955548 48.6709658,41.5578425 49.7206507,41.5578425 C50.7911164,41.5578425 51.6147466,41.7793356 52.1915411,42.2200411 C52.7660548,42.6607466 53.0521712,43.2973493 53.0521712,44.1235137 C53.0519178,44.1235137 53.0519178,46.354411 53.0519178,46.354411 Z M26.354137,30.0201781 L29.1065822,30.0201781 L29.1065822,23.3132945 L32.311137,13.8542192 L29.5125685,13.8542192 L27.8098082,20.3188288 L27.6344384,20.3188288 L25.8488082,13.8542192 L23.0733014,13.8542192 L26.3538836,23.6156301 C26.354137,23.6156301 26.354137,30.0201781 26.354137,30.0201781 Z M40.3350685,43.4704384 L39.8251781,43.5535616 L39.329226,43.809774 L39.329226,49.0652945 C39.5230959,49.2013836 39.7144315,49.3052877 39.8991781,49.3628151 L40.4782534,49.4527808 C40.7734932,49.4527808 40.9881438,49.395 41.1265137,49.2728493 C41.2626027,49.1552603 41.3340685,48.9613904 41.3340685,48.6960548 L41.3340685,44.337911 C41.3340685,44.0495137 41.253226,43.834863 41.0826712,43.6896507 C40.9073014,43.5444384 40.6604658,43.4704384 40.3350685,43.4704384 Z" id="Shape" fill="#FFFFFF"></path>
            <path d="M49.7274932,43.0875137 C49.3536918,43.0875137 49.0883562,43.1660753 48.9246438,43.3275068 C48.7632123,43.4820959 48.6846507,43.7451507 48.6846507,44.1118562 L48.6846507,44.9932671 L50.7541164,44.9932671 L50.7541164,44.1118562 C50.7541164,43.7451507 50.6687123,43.4843767 50.5072808,43.3275068 C50.3478767,43.1660753 50.0827945,43.0875137 49.7274932,43.0875137 Z" id="Shape" fill="#FFFFFF"></path>
        </g>
    </g>
</svg>